<svg width="499" height="474" viewBox="0 0 499 474" fill="none" xmlns="http://www.w3.org/2000/svg">
<rect x="12" y="50" width="475" height="369" stroke="#FCFBFB" stroke-width="16"/>
<mask id="path-2-inside-1" fill="white">
<rect x="39" y="249" width="420" height="146" rx="10"/>
</mask>
<rect x="39" y="249" width="420" height="146" rx="10" stroke="#FCFBFB" stroke-width="32" mask="url(#path-2-inside-1)"/>
<mask id="path-3-inside-2" fill="white">
<rect x="39" y="73" width="420" height="146" rx="10"/>
</mask>
<rect x="39" y="73" width="420" height="146" rx="10" stroke="#FCFBFB" stroke-width="32" mask="url(#path-3-inside-2)"/>
<line x1="206" y1="108.5" x2="292" y2="108.5" stroke="white" stroke-width="13"/>
<line x1="206" y1="284.5" x2="292" y2="284.5" stroke="white" stroke-width="13"/>
<path d="M20 8H479C483.418 8 487 11.5817 487 16V44H12V16C12 11.5817 15.5817 8 20 8Z" stroke="white" stroke-width="16"/>
<g filter="url(#filter0_d)">
<rect x="10" y="421" width="66" height="39" rx="10" stroke="white" stroke-width="12" shape-rendering="crispEdges"/>
</g>
<g filter="url(#filter1_d)">
<rect x="423" y="421" width="66" height="39" rx="10" stroke="white" stroke-width="12" shape-rendering="crispEdges"/>
</g>
<defs>
<filter id="filter0_d" x="0" y="415" width="86" height="59" filterUnits="userSpaceOnUse" color-interpolation-filters="sRGB">
<feFlood flood-opacity="0" result="BackgroundImageFix"/>
<feColorMatrix in="SourceAlpha" type="matrix" values="0 0 0 0 0 0 0 0 0 0 0 0 0 0 0 0 0 0 127 0" result="hardAlpha"/>
<feOffset dy="4"/>
<feGaussianBlur stdDeviation="2"/>
<feComposite in2="hardAlpha" operator="out"/>
<feColorMatrix type="matrix" values="0 0 0 0 0 0 0 0 0 0 0 0 0 0 0 0 0 0 0.25 0"/>
<feBlend mode="normal" in2="BackgroundImageFix" result="effect1_dropShadow"/>
<feBlend mode="normal" in="SourceGraphic" in2="effect1_dropShadow" result="shape"/>
</filter>
<filter id="filter1_d" x="413" y="415" width="86" height="59" filterUnits="userSpaceOnUse" color-interpolation-filters="sRGB">
<feFlood flood-opacity="0" result="BackgroundImageFix"/>
<feColorMatrix in="SourceAlpha" type="matrix" values="0 0 0 0 0 0 0 0 0 0 0 0 0 0 0 0 0 0 127 0" result="hardAlpha"/>
<feOffset dy="4"/>
<feGaussianBlur stdDeviation="2"/>
<feComposite in2="hardAlpha" operator="out"/>
<feColorMatrix type="matrix" values="0 0 0 0 0 0 0 0 0 0 0 0 0 0 0 0 0 0 0.25 0"/>
<feBlend mode="normal" in2="BackgroundImageFix" result="effect1_dropShadow"/>
<feBlend mode="normal" in="SourceGraphic" in2="effect1_dropShadow" result="shape"/>
</filter>
</defs>
</svg>
